<svg width="25" height="24" viewBox="0 0 25 24" fill="none" xmlns="http://www.w3.org/2000/svg">
<path d="M24.375 12C24.375 5.37176 19.0027 0 12.375 0C5.74676 0 0.375 5.37233 0.375 12C0.375 18.6282 5.74733 24 12.375 24C19.0032 24 24.375 18.6277 24.375 12ZM1.81086 12.7059H4.0758C4.22484 14.4731 4.92785 16.0848 6.01025 17.3665L4.40926 18.9675C2.92258 17.27 1.96893 15.0951 1.81086 12.7059ZM4.40926 5.03247L6.01029 6.63351C4.92785 7.91525 4.22484 9.52692 4.0758 11.2941H1.81086C1.96893 8.90494 2.92258 6.73002 4.40926 5.03247ZM22.9391 11.2941H20.6742C20.5252 9.52692 19.8222 7.91525 18.7398 6.63351L20.3408 5.03247C21.8274 6.73002 22.7811 8.90494 22.9391 11.2941ZM12.375 18.9176C8.5606 18.9176 5.45735 15.8144 5.45735 12C5.45735 8.1856 8.5606 5.08235 12.375 5.08235C16.1894 5.08235 19.2926 8.1856 19.2926 12C19.2926 15.8144 16.1894 18.9176 12.375 18.9176ZM17.7415 5.63529C16.4598 4.55285 14.8481 3.84984 13.0809 3.7008V1.43586C15.47 1.59393 17.645 2.54758 19.3425 4.03426L17.7415 5.63529ZM11.6691 3.7008C9.90192 3.84984 8.29025 4.55285 7.00851 5.63529L5.40747 4.03426C7.10502 2.54758 9.27999 1.59393 11.6691 1.43586V3.7008ZM7.00851 18.3647C8.29025 19.4471 9.90192 20.1502 11.6691 20.2992V22.5641C9.27999 22.406 7.10502 21.4523 5.40752 19.9657L7.00851 18.3647ZM13.0809 20.2992C14.8481 20.1502 16.4598 19.4472 17.7415 18.3648L19.3425 19.9658C17.645 21.4524 15.4701 22.4061 13.0809 22.5642V20.2992H13.0809ZM18.7398 17.3665C19.8222 16.0848 20.5252 14.4731 20.6742 12.7059H22.9391C22.7811 15.0951 21.8274 17.27 20.3407 18.9675L18.7398 17.3665Z" fill="#78797E"/>
</svg>
