<svg width="20" height="22" viewBox="0 0 20 22" fill="none" xmlns="http://www.w3.org/2000/svg">
<path fill-rule="evenodd" clip-rule="evenodd" d="M10.632 2.36309C10.2988 2.27897 9.94996 2.27897 9.61677 2.36309C9.2791 2.44833 8.94252 2.66955 7.88824 3.41939L3.6638 6.42393C2.88733 6.97618 2.65166 7.15435 2.48599 7.36484C2.32259 7.57245 2.20036 7.80937 2.12588 8.06286C2.05037 8.31986 2.04178 8.61518 2.04178 9.56801V15.6649C2.04178 16.5125 2.04247 17.0941 2.0793 17.5448C2.11527 17.9851 2.18117 18.2207 2.26781 18.3907C2.46664 18.781 2.7839 19.0982 3.17413 19.297C3.34418 19.3837 3.57978 19.4496 4.02002 19.4856C4.47077 19.5224 5.05235 19.5231 5.89996 19.5231H14.3488C15.1964 19.5231 15.778 19.5224 16.2288 19.4856C16.669 19.4496 16.9046 19.3837 17.0747 19.297C17.4649 19.0982 17.7822 18.781 17.981 18.3907C18.0676 18.2207 18.1335 17.9851 18.1695 17.5448C18.2063 17.0941 18.207 16.5125 18.207 15.6649V9.56801C18.207 8.61518 18.1984 8.31986 18.1229 8.06286C18.0484 7.80937 17.9262 7.57245 17.7628 7.36484C17.5971 7.15435 17.3615 6.97618 16.585 6.42393L12.3606 3.41939C11.3063 2.66955 10.9697 2.44833 10.632 2.36309ZM9.17617 0.617845C9.79856 0.460718 10.4502 0.460718 11.0726 0.617845C11.7807 0.796593 12.4088 1.24393 13.2696 1.85701C13.3137 1.88843 13.3584 1.92028 13.4038 1.95255L17.6283 4.9571C17.661 4.98042 17.6934 5.0034 17.7253 5.02608C18.3639 5.47977 18.831 5.81167 19.1773 6.25159C19.4825 6.63939 19.7108 7.08194 19.8499 7.55544C20.0077 8.09256 20.0074 8.66562 20.0071 9.44893C20.007 9.48809 20.007 9.52777 20.007 9.56801V15.7026C20.007 16.5033 20.007 17.1587 19.9635 17.6914C19.9185 18.243 19.8223 18.7418 19.5848 19.2079C19.2134 19.9368 18.6208 20.5295 17.8919 20.9009C17.4258 21.1383 16.9269 21.2345 16.3754 21.2796C15.8426 21.3231 15.1873 21.3231 14.3865 21.3231H5.8623C5.06153 21.3231 4.40616 21.3231 3.87344 21.2796C3.32189 21.2345 2.82304 21.1383 2.35694 20.9009C1.62803 20.5295 1.0354 19.9368 0.664002 19.2079C0.426515 18.7418 0.330345 18.243 0.285281 17.6914C0.241756 17.1587 0.241764 16.5033 0.241775 15.7025L0.241775 9.56801C0.241775 9.52777 0.241756 9.48808 0.241736 9.44892C0.241352 8.66561 0.24107 8.09256 0.398882 7.55544C0.538003 7.08194 0.766316 6.63939 1.07154 6.25159C1.41778 5.81168 1.88493 5.47977 2.52347 5.02609C2.5554 5.00341 2.58775 4.98042 2.62054 4.9571L6.84498 1.95255C6.89036 1.92028 6.93508 1.88843 6.97919 1.85701C7.84002 1.24393 8.46813 0.796593 9.17617 0.617845Z" fill="#78797E"/>
</svg>
