<svg width="23" height="22" viewBox="0 0 23 22" fill="none" xmlns="http://www.w3.org/2000/svg">
<path fill-rule="evenodd" clip-rule="evenodd" d="M10.5003 1.15795C11.0343 0.353112 12.2161 0.353111 12.7501 1.15795L15.9731 6.01557L21.5889 7.57973C22.5194 7.83889 22.8846 8.96286 22.2842 9.71944L18.6602 14.2858L18.908 20.1101C18.9491 21.0751 17.993 21.7698 17.0879 21.4325L11.6252 19.397L6.16251 21.4325C5.25742 21.7698 4.30131 21.0751 4.34236 20.1101L4.59015 14.2858L0.966235 9.71944C0.365803 8.96286 0.731005 7.83889 1.66147 7.57973L7.2773 6.01557L10.5003 1.15795ZM11.6252 2.53738L8.62176 7.06412C8.44238 7.33448 8.17162 7.53119 7.85907 7.61824L2.62577 9.07585L6.00283 13.3311C6.20453 13.5853 6.30795 13.9036 6.29416 14.2277L6.06325 19.6553L11.1538 17.7585C11.4579 17.6452 11.7925 17.6452 12.0966 17.7585L17.1872 19.6553L16.9562 14.2277C16.9425 13.9036 17.0459 13.5853 17.2476 13.3311L20.6246 9.07585L15.3913 7.61824C15.0788 7.53119 14.808 7.33448 14.6286 7.06412L11.6252 2.53738Z" fill="#78797E"/>
</svg>
