<svg width="23" height="12" viewBox="0 0 23 12" fill="none" xmlns="http://www.w3.org/2000/svg">
<path fill-rule="evenodd" clip-rule="evenodd" d="M0.975098 0.999976C0.975098 0.502919 1.37804 0.0999756 1.8751 0.0999756H21.8751C22.3722 0.0999756 22.7751 0.502919 22.7751 0.999976C22.7751 1.49703 22.3722 1.89998 21.8751 1.89998H1.8751C1.37804 1.89998 0.975098 1.49703 0.975098 0.999976ZM0.975098 5.99998C0.975098 5.50292 1.37804 5.09998 1.8751 5.09998H21.8751C22.3722 5.09998 22.7751 5.50292 22.7751 5.99998C22.7751 6.49703 22.3722 6.89998 21.8751 6.89998H1.8751C1.37804 6.89998 0.975098 6.49703 0.975098 5.99998ZM0.975098 11C0.975098 10.5029 1.37804 10.1 1.8751 10.1H21.8751C22.3722 10.1 22.7751 10.5029 22.7751 11C22.7751 11.497 22.3722 11.9 21.8751 11.9H1.8751C1.37804 11.9 0.975098 11.497 0.975098 11Z" fill="#78797E"/>
</svg>
