<svg width="12" height="8" viewBox="0 0 12 8" fill="none" xmlns="http://www.w3.org/2000/svg">
<path d="M6.28076 7.34521C6.55371 7.34521 6.77588 7.25 6.98535 7.02783L11.7461 2.15918C11.9175 1.99414 12 1.79102 12 1.54346C12 1.05469 11.6064 0.654785 11.1177 0.654785C10.8765 0.654785 10.6543 0.756348 10.4766 0.934082L6.28711 5.25049L2.08496 0.934082C1.91357 0.756347 1.69141 0.654785 1.44385 0.654785C0.955078 0.654785 0.561523 1.05469 0.561523 1.54346C0.561523 1.78467 0.644043 1.99414 0.81543 2.15918L5.57617 7.02783C5.78564 7.25 6.01416 7.34521 6.28076 7.34521Z" fill="#AAAAAA"/>
</svg>
