<svg width="22" height="22" viewBox="0 0 22 22" fill="none" xmlns="http://www.w3.org/2000/svg">
<path fill-rule="evenodd" clip-rule="evenodd" d="M8.90464 1.94999C5.06337 1.94999 1.95005 5.0626 1.95005 8.9014C1.95005 12.7402 5.06337 15.8528 8.90464 15.8528C10.8263 15.8528 12.5644 15.075 13.824 13.815C15.0826 12.5561 15.8592 10.8203 15.8592 8.9014C15.8592 5.0626 12.7459 1.94999 8.90464 1.94999ZM0.0500488 8.9014C0.0500488 4.01254 4.01475 0.0499878 8.90464 0.0499878C13.7945 0.0499878 17.7592 4.01254 17.7592 8.9014C17.7592 11.0024 17.026 12.9336 15.8029 14.4511L21.6723 20.3287C22.043 20.7 22.0426 21.3015 21.6713 21.6722C21.3001 22.0429 20.6986 22.0425 20.3278 21.6713L14.4595 15.7947C12.9408 17.0189 11.0078 17.7528 8.90464 17.7528C4.01475 17.7528 0.0500488 13.7903 0.0500488 8.9014Z" fill="#78797E"/>
</svg>
